<svg width="140" height="162" viewBox="0 0 140 162" fill="none" xmlns="http://www.w3.org/2000/svg">
<g filter="url(#filter0_dd_180_154)">
<rect x="11" y="7" width="118" height="140" rx="16" fill="white"/>
<path fill-rule="evenodd" clip-rule="evenodd" d="M46.06 68.59L47.41 69.94C48.2 70.72 48.2 71.99 47.41 72.77L34.18 86H30V81.82L40.4 71.41L43.23 68.59C44.01 67.81 45.28 67.81 46.06 68.59ZM32 84L33.41 84.06L43.23 74.23L41.82 72.82L32 82.64V84Z" fill="#8598FF"/>
<path d="M78.2574 63.373L75.2838 72H73.4859L77.232 62.0469H78.3805L78.2574 63.373ZM80.7457 72L77.7652 63.373L77.6354 62.0469H78.7906L82.5504 72H80.7457ZM80.6021 68.3086V69.6689H75.1881V68.3086H80.6021ZM88.1123 70.4688V61.5H89.7666V72H88.2695L88.1123 70.4688ZM83.2998 68.3838V68.2402C83.2998 67.6797 83.3659 67.1693 83.498 66.709C83.6302 66.2441 83.8216 65.8454 84.0723 65.5127C84.3229 65.1755 84.6283 64.918 84.9883 64.7402C85.3483 64.5579 85.7539 64.4668 86.2051 64.4668C86.6517 64.4668 87.0436 64.5534 87.3809 64.7266C87.7181 64.8997 88.0052 65.1481 88.2422 65.4717C88.4792 65.7907 88.6683 66.1735 88.8096 66.6201C88.9508 67.0622 89.0511 67.5544 89.1104 68.0967V68.5547C89.0511 69.0833 88.9508 69.5664 88.8096 70.0039C88.6683 70.4414 88.4792 70.8197 88.2422 71.1387C88.0052 71.4577 87.7158 71.7038 87.374 71.877C87.0368 72.0501 86.6426 72.1367 86.1914 72.1367C85.7448 72.1367 85.3415 72.0433 84.9814 71.8564C84.626 71.6696 84.3229 71.4076 84.0723 71.0703C83.8216 70.7331 83.6302 70.3366 83.498 69.8809C83.3659 69.4206 83.2998 68.9215 83.2998 68.3838ZM84.9473 68.2402V68.3838C84.9473 68.721 84.9769 69.0355 85.0361 69.3271C85.0999 69.6188 85.1979 69.8763 85.3301 70.0996C85.4622 70.3184 85.6331 70.4915 85.8428 70.6191C86.057 70.7422 86.3122 70.8037 86.6084 70.8037C86.9821 70.8037 87.2897 70.7217 87.5312 70.5576C87.7728 70.3936 87.9619 70.1725 88.0986 69.8945C88.2399 69.612 88.3356 69.2975 88.3857 68.9512V67.7139C88.3584 67.445 88.3014 67.1943 88.2148 66.9619C88.1328 66.7295 88.0212 66.5267 87.8799 66.3535C87.7386 66.1758 87.5632 66.0391 87.3535 65.9434C87.1484 65.8431 86.9046 65.793 86.6221 65.793C86.3213 65.793 86.0661 65.8568 85.8564 65.9844C85.6468 66.112 85.4736 66.2874 85.3369 66.5107C85.2048 66.734 85.1068 66.9938 85.043 67.29C84.9792 67.5863 84.9473 67.903 84.9473 68.2402ZM96.101 70.4688V61.5H97.7553V72H96.2582L96.101 70.4688ZM91.2885 68.3838V68.2402C91.2885 67.6797 91.3546 67.1693 91.4867 66.709C91.6189 66.2441 91.8103 65.8454 92.0609 65.5127C92.3116 65.1755 92.6169 64.918 92.977 64.7402C93.337 64.5579 93.7426 64.4668 94.1938 64.4668C94.6404 64.4668 95.0323 64.5534 95.3695 64.7266C95.7068 64.8997 95.9939 65.1481 96.2309 65.4717C96.4678 65.7907 96.657 66.1735 96.7982 66.6201C96.9395 67.0622 97.0398 67.5544 97.099 68.0967V68.5547C97.0398 69.0833 96.9395 69.5664 96.7982 70.0039C96.657 70.4414 96.4678 70.8197 96.2309 71.1387C95.9939 71.4577 95.7045 71.7038 95.3627 71.877C95.0255 72.0501 94.6313 72.1367 94.1801 72.1367C93.7335 72.1367 93.3301 72.0433 92.9701 71.8564C92.6146 71.6696 92.3116 71.4076 92.0609 71.0703C91.8103 70.7331 91.6189 70.3366 91.4867 69.8809C91.3546 69.4206 91.2885 68.9215 91.2885 68.3838ZM92.9359 68.2402V68.3838C92.9359 68.721 92.9656 69.0355 93.0248 69.3271C93.0886 69.6188 93.1866 69.8763 93.3188 70.0996C93.4509 70.3184 93.6218 70.4915 93.8314 70.6191C94.0456 70.7422 94.3008 70.8037 94.5971 70.8037C94.9708 70.8037 95.2784 70.7217 95.5199 70.5576C95.7615 70.3936 95.9506 70.1725 96.0873 69.8945C96.2286 69.612 96.3243 69.2975 96.3744 68.9512V67.7139C96.3471 67.445 96.2901 67.1943 96.2035 66.9619C96.1215 66.7295 96.0098 66.5267 95.8686 66.3535C95.7273 66.1758 95.5518 66.0391 95.3422 65.9434C95.1371 65.8431 94.8933 65.793 94.6107 65.793C94.31 65.793 94.0548 65.8568 93.8451 65.9844C93.6355 66.112 93.4623 66.2874 93.3256 66.5107C93.1934 66.734 93.0954 66.9938 93.0316 67.29C92.9678 67.5863 92.9359 67.903 92.9359 68.2402ZM70.3691 88.7598H72.0781C72.0234 89.4115 71.8411 89.9925 71.5312 90.5029C71.2214 91.0088 70.7861 91.4076 70.2256 91.6992C69.665 91.9909 68.9837 92.1367 68.1816 92.1367C67.5664 92.1367 67.0127 92.0273 66.5205 91.8086C66.0283 91.5853 65.6068 91.2708 65.2559 90.8652C64.9049 90.4551 64.6361 89.9606 64.4492 89.3818C64.2669 88.8031 64.1758 88.1559 64.1758 87.4404V86.6133C64.1758 85.8978 64.2692 85.2507 64.4561 84.6719C64.6475 84.0931 64.9209 83.5986 65.2764 83.1885C65.6318 82.7738 66.0579 82.457 66.5547 82.2383C67.056 82.0195 67.6188 81.9102 68.2432 81.9102C69.0361 81.9102 69.7061 82.056 70.2529 82.3477C70.7998 82.6393 71.2236 83.0426 71.5244 83.5576C71.8298 84.0726 72.0166 84.6628 72.085 85.3281H70.376C70.3304 84.8997 70.2301 84.5329 70.0752 84.2275C69.9248 83.9222 69.7015 83.6898 69.4053 83.5303C69.109 83.3662 68.7217 83.2842 68.2432 83.2842C67.8512 83.2842 67.5094 83.3571 67.2178 83.5029C66.9261 83.6488 66.6823 83.863 66.4863 84.1455C66.2904 84.4281 66.1423 84.7767 66.042 85.1914C65.9463 85.6016 65.8984 86.071 65.8984 86.5996V87.4404C65.8984 87.9417 65.9417 88.3975 66.0283 88.8076C66.1195 89.2132 66.2562 89.5618 66.4385 89.8535C66.6253 90.1452 66.8623 90.3708 67.1494 90.5303C67.4365 90.6898 67.7806 90.7695 68.1816 90.7695C68.6693 90.7695 69.0635 90.6921 69.3643 90.5371C69.6696 90.3822 69.8997 90.1566 70.0547 89.8604C70.2142 89.5596 70.319 89.1927 70.3691 88.7598ZM73.2582 88.3838V88.2266C73.2582 87.6934 73.3357 87.1989 73.4906 86.7432C73.6456 86.2829 73.8689 85.8841 74.1605 85.5469C74.4568 85.2051 74.8168 84.9408 75.2406 84.7539C75.669 84.5625 76.1521 84.4668 76.6898 84.4668C77.2322 84.4668 77.7152 84.5625 78.1391 84.7539C78.5674 84.9408 78.9298 85.2051 79.226 85.5469C79.5222 85.8841 79.7478 86.2829 79.9027 86.7432C80.0577 87.1989 80.1352 87.6934 80.1352 88.2266V88.3838C80.1352 88.917 80.0577 89.4115 79.9027 89.8672C79.7478 90.3229 79.5222 90.7217 79.226 91.0635C78.9298 91.4007 78.5697 91.665 78.1459 91.8564C77.7221 92.0433 77.2413 92.1367 76.7035 92.1367C76.1612 92.1367 75.6758 92.0433 75.2475 91.8564C74.8236 91.665 74.4636 91.4007 74.1674 91.0635C73.8712 90.7217 73.6456 90.3229 73.4906 89.8672C73.3357 89.4115 73.2582 88.917 73.2582 88.3838ZM74.9057 88.2266V88.3838C74.9057 88.7165 74.9398 89.0309 75.0082 89.3271C75.0766 89.6234 75.1837 89.8831 75.3295 90.1064C75.4753 90.3298 75.6622 90.5052 75.89 90.6328C76.1179 90.7604 76.3891 90.8242 76.7035 90.8242C77.0089 90.8242 77.2732 90.7604 77.4965 90.6328C77.7243 90.5052 77.9112 90.3298 78.057 90.1064C78.2029 89.8831 78.31 89.6234 78.3783 89.3271C78.4512 89.0309 78.4877 88.7165 78.4877 88.3838V88.2266C78.4877 87.8984 78.4512 87.5885 78.3783 87.2969C78.31 87.0007 78.2006 86.7386 78.0502 86.5107C77.9044 86.2829 77.7175 86.1051 77.4896 85.9775C77.2663 85.8454 76.9997 85.7793 76.6898 85.7793C76.3799 85.7793 76.1111 85.8454 75.8832 85.9775C75.6599 86.1051 75.4753 86.2829 75.3295 86.5107C75.1837 86.7386 75.0766 87.0007 75.0082 87.2969C74.9398 87.5885 74.9057 87.8984 74.9057 88.2266ZM86.0662 90.2568V84.6035H87.7205V92H86.1619L86.0662 90.2568ZM86.2986 88.7188L86.8523 88.7051C86.8523 89.2018 86.7977 89.6598 86.6883 90.0791C86.5789 90.4938 86.4103 90.8561 86.1824 91.166C85.9546 91.4714 85.6629 91.7106 85.3074 91.8838C84.952 92.0524 84.5258 92.1367 84.0291 92.1367C83.6691 92.1367 83.3387 92.0843 83.0379 91.9795C82.7371 91.8747 82.4773 91.7129 82.2586 91.4941C82.0444 91.2754 81.8781 90.9906 81.7596 90.6396C81.6411 90.2887 81.5818 89.8695 81.5818 89.3818V84.6035H83.2293V89.3955C83.2293 89.6644 83.2612 89.89 83.325 90.0723C83.3888 90.25 83.4754 90.3936 83.5848 90.5029C83.6941 90.6123 83.8217 90.6898 83.9676 90.7354C84.1134 90.7809 84.2684 90.8037 84.4324 90.8037C84.9018 90.8037 85.271 90.7126 85.5398 90.5303C85.8133 90.3434 86.007 90.0928 86.1209 89.7783C86.2394 89.4639 86.2986 89.1107 86.2986 88.7188ZM91.1633 86.0117V92H89.5158V84.6035H91.0881L91.1633 86.0117ZM93.426 84.5557L93.4123 86.0869C93.312 86.0687 93.2027 86.055 93.0842 86.0459C92.9702 86.0368 92.8563 86.0322 92.7424 86.0322C92.4598 86.0322 92.2115 86.0732 91.9973 86.1553C91.7831 86.2327 91.6031 86.3467 91.4572 86.4971C91.3159 86.6429 91.2066 86.8206 91.1291 87.0303C91.0516 87.2399 91.0061 87.4746 90.9924 87.7344L90.6164 87.7617C90.6164 87.2969 90.662 86.8662 90.7531 86.4697C90.8443 86.0732 90.981 85.7246 91.1633 85.4238C91.3501 85.123 91.5826 84.8883 91.8605 84.7197C92.1431 84.5511 92.4689 84.4668 92.8381 84.4668C92.9383 84.4668 93.0454 84.4759 93.1594 84.4941C93.2779 84.5124 93.3667 84.5329 93.426 84.5557ZM98.7076 89.9971C98.7076 89.833 98.6666 89.6849 98.5846 89.5527C98.5025 89.416 98.3453 89.293 98.1129 89.1836C97.885 89.0742 97.5478 88.974 97.1012 88.8828C96.7092 88.7962 96.3492 88.6937 96.0211 88.5752C95.6975 88.4521 95.4195 88.304 95.1871 88.1309C94.9547 87.9577 94.7747 87.7526 94.6471 87.5156C94.5195 87.2786 94.4557 87.0052 94.4557 86.6953C94.4557 86.3945 94.5217 86.1097 94.6539 85.8408C94.7861 85.5719 94.9752 85.335 95.2213 85.1299C95.4674 84.9248 95.7659 84.763 96.1168 84.6445C96.4723 84.526 96.8687 84.4668 97.3062 84.4668C97.926 84.4668 98.457 84.5716 98.899 84.7812C99.3456 84.9863 99.6874 85.2666 99.9244 85.6221C100.161 85.973 100.28 86.3695 100.28 86.8115H98.6324C98.6324 86.6156 98.5823 86.4333 98.482 86.2646C98.3863 86.0915 98.2405 85.9525 98.0445 85.8477C97.8486 85.7383 97.6025 85.6836 97.3062 85.6836C97.0237 85.6836 96.789 85.7292 96.6021 85.8203C96.4199 85.9069 96.2831 86.0208 96.192 86.1621C96.1054 86.3034 96.0621 86.4583 96.0621 86.627C96.0621 86.75 96.0849 86.8617 96.1305 86.9619C96.1806 87.0576 96.2626 87.1465 96.3766 87.2285C96.4905 87.306 96.6454 87.3789 96.8414 87.4473C97.0419 87.5156 97.2926 87.5817 97.5934 87.6455C98.1585 87.764 98.6438 87.9167 99.0494 88.1035C99.4596 88.2858 99.774 88.5228 99.9928 88.8145C100.212 89.1016 100.321 89.4661 100.321 89.9082C100.321 90.2363 100.25 90.5371 100.109 90.8105C99.9723 91.0794 99.7717 91.3141 99.5074 91.5146C99.2431 91.7106 98.9264 91.8633 98.5572 91.9727C98.1926 92.082 97.7825 92.1367 97.3268 92.1367C96.6568 92.1367 96.0895 92.0182 95.6246 91.7812C95.1598 91.5397 94.8066 91.2321 94.565 90.8584C94.3281 90.4801 94.2096 90.0882 94.2096 89.6826H95.8023C95.8206 89.988 95.9049 90.2318 96.0553 90.4141C96.2102 90.5918 96.4016 90.7217 96.6295 90.8037C96.8619 90.8812 97.1012 90.9199 97.3473 90.9199C97.6435 90.9199 97.8919 90.8812 98.0924 90.8037C98.2929 90.7217 98.4456 90.6123 98.5504 90.4756C98.6552 90.3343 98.7076 90.1748 98.7076 89.9971ZM105.124 92.1367C104.577 92.1367 104.083 92.0479 103.641 91.8701C103.203 91.6878 102.829 91.4349 102.52 91.1113C102.214 90.7878 101.979 90.4072 101.815 89.9697C101.651 89.5322 101.569 89.0605 101.569 88.5547V88.2812C101.569 87.7025 101.654 87.1784 101.822 86.709C101.991 86.2396 102.226 85.8385 102.526 85.5059C102.827 85.1686 103.183 84.9111 103.593 84.7334C104.003 84.5557 104.447 84.4668 104.926 84.4668C105.454 84.4668 105.917 84.5557 106.313 84.7334C106.71 84.9111 107.038 85.1618 107.298 85.4854C107.562 85.8044 107.758 86.1849 107.886 86.627C108.018 87.069 108.084 87.5566 108.084 88.0898V88.7939H102.369V87.6113H106.457V87.4814C106.448 87.1852 106.389 86.9072 106.279 86.6475C106.174 86.3877 106.013 86.1781 105.794 86.0186C105.575 85.859 105.284 85.7793 104.919 85.7793C104.646 85.7793 104.402 85.8385 104.188 85.957C103.978 86.071 103.802 86.2373 103.661 86.4561C103.52 86.6748 103.41 86.9391 103.333 87.249C103.26 87.5544 103.224 87.8984 103.224 88.2812V88.5547C103.224 88.8783 103.267 89.179 103.354 89.457C103.445 89.7305 103.577 89.9697 103.75 90.1748C103.923 90.3799 104.133 90.5417 104.379 90.6602C104.625 90.7741 104.905 90.8311 105.22 90.8311C105.616 90.8311 105.969 90.7513 106.279 90.5918C106.589 90.4323 106.858 90.2067 107.086 89.915L107.954 90.7559C107.795 90.9883 107.587 91.2116 107.332 91.4258C107.077 91.6354 106.765 91.8063 106.396 91.9385C106.031 92.0706 105.607 92.1367 105.124 92.1367Z" fill="#8598FF"/>
</g>
<defs>
<filter id="filter0_dd_180_154" x="0" y="0" width="140" height="162" filterUnits="userSpaceOnUse" color-interpolation-filters="sRGB">
<feFlood flood-opacity="0" result="BackgroundImageFix"/>
<feColorMatrix in="SourceAlpha" type="matrix" values="0 0 0 0 0 0 0 0 0 0 0 0 0 0 0 0 0 0 127 0" result="hardAlpha"/>
<feOffset dy="1"/>
<feGaussianBlur stdDeviation="1.5"/>
<feColorMatrix type="matrix" values="0 0 0 0 0 0 0 0 0 0 0 0 0 0 0 0 0 0 0.3 0"/>
<feBlend mode="normal" in2="BackgroundImageFix" result="effect1_dropShadow_180_154"/>
<feColorMatrix in="SourceAlpha" type="matrix" values="0 0 0 0 0 0 0 0 0 0 0 0 0 0 0 0 0 0 127 0" result="hardAlpha"/>
<feMorphology radius="3" operator="dilate" in="SourceAlpha" result="effect2_dropShadow_180_154"/>
<feOffset dy="4"/>
<feGaussianBlur stdDeviation="4"/>
<feColorMatrix type="matrix" values="0 0 0 0 0 0 0 0 0 0 0 0 0 0 0 0 0 0 0.15 0"/>
<feBlend mode="normal" in2="effect1_dropShadow_180_154" result="effect2_dropShadow_180_154"/>
<feBlend mode="normal" in="SourceGraphic" in2="effect2_dropShadow_180_154" result="shape"/>
</filter>
</defs>
</svg>
