<svg width="140" height="162" viewBox="0 0 140 162" fill="none" xmlns="http://www.w3.org/2000/svg">
<g filter="url(#filter0_dd_180_156)">
<rect x="11" y="7" width="118" height="140" rx="16" fill="white"/>
<path fill-rule="evenodd" clip-rule="evenodd" d="M46.06 68.59L47.41 69.94C48.2 70.72 48.2 71.99 47.41 72.77L34.18 86H30V81.82L40.4 71.41L43.23 68.59C44.01 67.81 45.28 67.81 46.06 68.59ZM32 84L33.41 84.06L43.23 74.23L41.82 72.82L32 82.64V84Z" fill="#8598FF"/>
<path d="M78.2574 63.373L75.2838 72H73.4859L77.232 62.0469H78.3805L78.2574 63.373ZM80.7457 72L77.7652 63.373L77.6354 62.0469H78.7906L82.5504 72H80.7457ZM80.6021 68.3086V69.6689H75.1881V68.3086H80.6021ZM88.1123 70.4688V61.5H89.7666V72H88.2695L88.1123 70.4688ZM83.2998 68.3838V68.2402C83.2998 67.6797 83.3659 67.1693 83.498 66.709C83.6302 66.2441 83.8216 65.8454 84.0723 65.5127C84.3229 65.1755 84.6283 64.918 84.9883 64.7402C85.3483 64.5579 85.7539 64.4668 86.2051 64.4668C86.6517 64.4668 87.0436 64.5534 87.3809 64.7266C87.7181 64.8997 88.0052 65.1481 88.2422 65.4717C88.4792 65.7907 88.6683 66.1735 88.8096 66.6201C88.9508 67.0622 89.0511 67.5544 89.1104 68.0967V68.5547C89.0511 69.0833 88.9508 69.5664 88.8096 70.0039C88.6683 70.4414 88.4792 70.8197 88.2422 71.1387C88.0052 71.4577 87.7158 71.7038 87.374 71.877C87.0368 72.0501 86.6426 72.1367 86.1914 72.1367C85.7448 72.1367 85.3415 72.0433 84.9814 71.8564C84.626 71.6696 84.3229 71.4076 84.0723 71.0703C83.8216 70.7331 83.6302 70.3366 83.498 69.8809C83.3659 69.4206 83.2998 68.9215 83.2998 68.3838ZM84.9473 68.2402V68.3838C84.9473 68.721 84.9769 69.0355 85.0361 69.3271C85.0999 69.6188 85.1979 69.8763 85.3301 70.0996C85.4622 70.3184 85.6331 70.4915 85.8428 70.6191C86.057 70.7422 86.3122 70.8037 86.6084 70.8037C86.9821 70.8037 87.2897 70.7217 87.5312 70.5576C87.7728 70.3936 87.9619 70.1725 88.0986 69.8945C88.2399 69.612 88.3356 69.2975 88.3857 68.9512V67.7139C88.3584 67.445 88.3014 67.1943 88.2148 66.9619C88.1328 66.7295 88.0212 66.5267 87.8799 66.3535C87.7386 66.1758 87.5632 66.0391 87.3535 65.9434C87.1484 65.8431 86.9046 65.793 86.6221 65.793C86.3213 65.793 86.0661 65.8568 85.8564 65.9844C85.6468 66.112 85.4736 66.2874 85.3369 66.5107C85.2048 66.734 85.1068 66.9938 85.043 67.29C84.9792 67.5863 84.9473 67.903 84.9473 68.2402ZM96.101 70.4688V61.5H97.7553V72H96.2582L96.101 70.4688ZM91.2885 68.3838V68.2402C91.2885 67.6797 91.3546 67.1693 91.4867 66.709C91.6189 66.2441 91.8103 65.8454 92.0609 65.5127C92.3116 65.1755 92.6169 64.918 92.977 64.7402C93.337 64.5579 93.7426 64.4668 94.1938 64.4668C94.6404 64.4668 95.0323 64.5534 95.3695 64.7266C95.7068 64.8997 95.9939 65.1481 96.2309 65.4717C96.4678 65.7907 96.657 66.1735 96.7982 66.6201C96.9395 67.0622 97.0398 67.5544 97.099 68.0967V68.5547C97.0398 69.0833 96.9395 69.5664 96.7982 70.0039C96.657 70.4414 96.4678 70.8197 96.2309 71.1387C95.9939 71.4577 95.7045 71.7038 95.3627 71.877C95.0255 72.0501 94.6313 72.1367 94.1801 72.1367C93.7335 72.1367 93.3301 72.0433 92.9701 71.8564C92.6146 71.6696 92.3116 71.4076 92.0609 71.0703C91.8103 70.7331 91.6189 70.3366 91.4867 69.8809C91.3546 69.4206 91.2885 68.9215 91.2885 68.3838ZM92.9359 68.2402V68.3838C92.9359 68.721 92.9656 69.0355 93.0248 69.3271C93.0886 69.6188 93.1866 69.8763 93.3188 70.0996C93.4509 70.3184 93.6218 70.4915 93.8314 70.6191C94.0456 70.7422 94.3008 70.8037 94.5971 70.8037C94.9708 70.8037 95.2784 70.7217 95.5199 70.5576C95.7615 70.3936 95.9506 70.1725 96.0873 69.8945C96.2286 69.612 96.3243 69.2975 96.3744 68.9512V67.7139C96.3471 67.445 96.2901 67.1943 96.2035 66.9619C96.1215 66.7295 96.0098 66.5267 95.8686 66.3535C95.7273 66.1758 95.5518 66.0391 95.3422 65.9434C95.1371 65.8431 94.8933 65.793 94.6107 65.793C94.31 65.793 94.0548 65.8568 93.8451 65.9844C93.6355 66.112 93.4623 66.2874 93.3256 66.5107C93.1934 66.734 93.0954 66.9938 93.0316 67.29C92.9678 67.5863 92.9359 67.903 92.9359 68.2402ZM68.1658 88.2881H65.575V86.9277H68.1658C68.617 86.9277 68.9816 86.8548 69.2596 86.709C69.5376 86.5632 69.7404 86.3626 69.868 86.1074C70.0001 85.8477 70.0662 85.5514 70.0662 85.2188C70.0662 84.9043 70.0001 84.6104 69.868 84.3369C69.7404 84.0589 69.5376 83.8356 69.2596 83.667C68.9816 83.4984 68.617 83.4141 68.1658 83.4141H66.1014V92H64.3855V82.0469H68.1658C68.936 82.0469 69.59 82.1836 70.1277 82.457C70.6701 82.7259 71.0825 83.0996 71.365 83.5781C71.6476 84.0521 71.7889 84.5944 71.7889 85.2051C71.7889 85.8477 71.6476 86.3991 71.365 86.8594C71.0825 87.3197 70.6701 87.6729 70.1277 87.9189C69.59 88.165 68.936 88.2881 68.1658 88.2881ZM74.9172 86.0117V92H73.2697V84.6035H74.842L74.9172 86.0117ZM77.1799 84.5557L77.1662 86.0869C77.066 86.0687 76.9566 86.055 76.8381 86.0459C76.7242 86.0368 76.6102 86.0322 76.4963 86.0322C76.2137 86.0322 75.9654 86.0732 75.7512 86.1553C75.537 86.2327 75.357 86.3467 75.2111 86.4971C75.0699 86.6429 74.9605 86.8206 74.883 87.0303C74.8055 87.2399 74.76 87.4746 74.7463 87.7344L74.3703 87.7617C74.3703 87.2969 74.4159 86.8662 74.507 86.4697C74.5982 86.0732 74.7349 85.7246 74.9172 85.4238C75.104 85.123 75.3365 84.8883 75.6145 84.7197C75.897 84.5511 76.2229 84.4668 76.592 84.4668C76.6923 84.4668 76.7994 84.4759 76.9133 84.4941C77.0318 84.5124 77.1206 84.5329 77.1799 84.5557ZM77.8199 88.3838V88.2266C77.8199 87.6934 77.8974 87.1989 78.0523 86.7432C78.2073 86.2829 78.4306 85.8841 78.7223 85.5469C79.0185 85.2051 79.3785 84.9408 79.8023 84.7539C80.2307 84.5625 80.7138 84.4668 81.2516 84.4668C81.7939 84.4668 82.277 84.5625 82.7008 84.7539C83.1292 84.9408 83.4915 85.2051 83.7877 85.5469C84.0839 85.8841 84.3095 86.2829 84.4645 86.7432C84.6194 87.1989 84.6969 87.6934 84.6969 88.2266V88.3838C84.6969 88.917 84.6194 89.4115 84.4645 89.8672C84.3095 90.3229 84.0839 90.7217 83.7877 91.0635C83.4915 91.4007 83.1314 91.665 82.7076 91.8564C82.2838 92.0433 81.803 92.1367 81.2652 92.1367C80.7229 92.1367 80.2376 92.0433 79.8092 91.8564C79.3854 91.665 79.0253 91.4007 78.7291 91.0635C78.4329 90.7217 78.2073 90.3229 78.0523 89.8672C77.8974 89.4115 77.8199 88.917 77.8199 88.3838ZM79.4674 88.2266V88.3838C79.4674 88.7165 79.5016 89.0309 79.5699 89.3271C79.6383 89.6234 79.7454 89.8831 79.8912 90.1064C80.037 90.3298 80.2239 90.5052 80.4518 90.6328C80.6796 90.7604 80.9508 90.8242 81.2652 90.8242C81.5706 90.8242 81.8349 90.7604 82.0582 90.6328C82.2861 90.5052 82.4729 90.3298 82.6188 90.1064C82.7646 89.8831 82.8717 89.6234 82.94 89.3271C83.013 89.0309 83.0494 88.7165 83.0494 88.3838V88.2266C83.0494 87.8984 83.013 87.5885 82.94 87.2969C82.8717 87.0007 82.7623 86.7386 82.6119 86.5107C82.4661 86.2829 82.2792 86.1051 82.0514 85.9775C81.8281 85.8454 81.5615 85.7793 81.2516 85.7793C80.9417 85.7793 80.6728 85.8454 80.4449 85.9775C80.2216 86.1051 80.037 86.2829 79.8912 86.5107C79.7454 86.7386 79.6383 87.0007 79.5699 87.2969C79.5016 87.5885 79.4674 87.8984 79.4674 88.2266ZM86.2598 84.6035H87.9141V92.6426C87.9141 93.1484 87.8275 93.5745 87.6543 93.9209C87.4811 94.2718 87.2259 94.5361 86.8887 94.7139C86.5514 94.8962 86.139 94.9873 85.6514 94.9873C85.5055 94.9873 85.3551 94.9759 85.2002 94.9531C85.0407 94.9349 84.8903 94.9076 84.749 94.8711L84.7559 93.5859C84.8516 93.6042 84.9541 93.6178 85.0635 93.627C85.1683 93.6406 85.2686 93.6475 85.3643 93.6475C85.5602 93.6475 85.7243 93.6133 85.8564 93.5449C85.9886 93.4766 86.0889 93.3695 86.1572 93.2236C86.2256 93.0778 86.2598 92.8841 86.2598 92.6426V84.6035ZM86.1162 82.6621C86.1162 82.4115 86.2005 82.2041 86.3691 82.04C86.5378 81.8714 86.7679 81.7871 87.0596 81.7871C87.3558 81.7871 87.5859 81.8714 87.75 82.04C87.9186 82.2041 88.0029 82.4115 88.0029 82.6621C88.0029 82.9082 87.9186 83.1133 87.75 83.2773C87.5859 83.4414 87.3558 83.5234 87.0596 83.5234C86.7679 83.5234 86.5378 83.4414 86.3691 83.2773C86.2005 83.1133 86.1162 82.9082 86.1162 82.6621ZM93.0521 92.1367C92.5053 92.1367 92.0108 92.0479 91.5688 91.8701C91.1313 91.6878 90.7576 91.4349 90.4477 91.1113C90.1423 90.7878 89.9076 90.4072 89.7436 89.9697C89.5795 89.5322 89.4975 89.0605 89.4975 88.5547V88.2812C89.4975 87.7025 89.5818 87.1784 89.7504 86.709C89.919 86.2396 90.1537 85.8385 90.4545 85.5059C90.7553 85.1686 91.1107 84.9111 91.5209 84.7334C91.9311 84.5557 92.3754 84.4668 92.8539 84.4668C93.3826 84.4668 93.8451 84.5557 94.2416 84.7334C94.6381 84.9111 94.9662 85.1618 95.226 85.4854C95.4903 85.8044 95.6863 86.1849 95.8139 86.627C95.946 87.069 96.0121 87.5566 96.0121 88.0898V88.7939H90.2973V87.6113H94.3852V87.4814C94.376 87.1852 94.3168 86.9072 94.2074 86.6475C94.1026 86.3877 93.9408 86.1781 93.7221 86.0186C93.5033 85.859 93.2117 85.7793 92.8471 85.7793C92.5736 85.7793 92.3298 85.8385 92.1156 85.957C91.906 86.071 91.7305 86.2373 91.5893 86.4561C91.448 86.6748 91.3386 86.9391 91.2611 87.249C91.1882 87.5544 91.1518 87.8984 91.1518 88.2812V88.5547C91.1518 88.8783 91.1951 89.179 91.2816 89.457C91.3728 89.7305 91.5049 89.9697 91.6781 90.1748C91.8513 90.3799 92.0609 90.5417 92.307 90.6602C92.5531 90.7741 92.8334 90.8311 93.1479 90.8311C93.5443 90.8311 93.8975 90.7513 94.2074 90.5918C94.5173 90.4323 94.7862 90.2067 95.0141 89.915L95.8822 90.7559C95.7227 90.9883 95.5154 91.2116 95.2602 91.4258C95.0049 91.6354 94.6928 91.8063 94.3236 91.9385C93.959 92.0706 93.5352 92.1367 93.0521 92.1367ZM100.419 90.8242C100.688 90.8242 100.929 90.7718 101.143 90.667C101.362 90.5576 101.538 90.4072 101.67 90.2158C101.806 90.0244 101.882 89.8034 101.895 89.5527H103.447C103.438 90.0312 103.297 90.4665 103.023 90.8584C102.75 91.2503 102.388 91.5625 101.936 91.7949C101.485 92.0228 100.986 92.1367 100.439 92.1367C99.8742 92.1367 99.382 92.041 98.9627 91.8496C98.5434 91.6536 98.1948 91.3848 97.9168 91.043C97.6388 90.7012 97.4292 90.307 97.2879 89.8604C97.1512 89.4137 97.0828 88.9352 97.0828 88.4248V88.1855C97.0828 87.6751 97.1512 87.1966 97.2879 86.75C97.4292 86.2988 97.6388 85.9023 97.9168 85.5605C98.1948 85.2188 98.5434 84.9521 98.9627 84.7607C99.382 84.5648 99.8719 84.4668 100.432 84.4668C101.025 84.4668 101.544 84.5853 101.991 84.8223C102.438 85.0547 102.789 85.3805 103.044 85.7998C103.304 86.2145 103.438 86.6976 103.447 87.249H101.895C101.882 86.9756 101.813 86.7295 101.69 86.5107C101.572 86.2874 101.403 86.1097 101.184 85.9775C100.97 85.8454 100.713 85.7793 100.412 85.7793C100.079 85.7793 99.8035 85.8477 99.5848 85.9844C99.366 86.1165 99.1951 86.2988 99.0721 86.5312C98.949 86.7591 98.8602 87.0166 98.8055 87.3037C98.7553 87.5863 98.7303 87.8802 98.7303 88.1855V88.4248C98.7303 88.7301 98.7553 89.0264 98.8055 89.3135C98.8556 89.6006 98.9422 89.8581 99.0652 90.0859C99.1928 90.3092 99.366 90.4893 99.5848 90.626C99.8035 90.7581 100.082 90.8242 100.419 90.8242ZM108.202 84.6035V85.8066H104.032V84.6035H108.202ZM105.236 82.792H106.883V89.9561C106.883 90.1839 106.915 90.3594 106.979 90.4824C107.047 90.6009 107.14 90.6807 107.259 90.7217C107.377 90.7627 107.516 90.7832 107.676 90.7832C107.79 90.7832 107.899 90.7764 108.004 90.7627C108.109 90.749 108.193 90.7354 108.257 90.7217L108.264 91.9795C108.127 92.0205 107.968 92.057 107.785 92.0889C107.608 92.1208 107.403 92.1367 107.17 92.1367C106.792 92.1367 106.457 92.0706 106.165 91.9385C105.874 91.8018 105.646 91.5807 105.482 91.2754C105.318 90.9701 105.236 90.5645 105.236 90.0586V82.792Z" fill="#8598FF"/>
</g>
<defs>
<filter id="filter0_dd_180_156" x="0" y="0" width="140" height="162" filterUnits="userSpaceOnUse" color-interpolation-filters="sRGB">
<feFlood flood-opacity="0" result="BackgroundImageFix"/>
<feColorMatrix in="SourceAlpha" type="matrix" values="0 0 0 0 0 0 0 0 0 0 0 0 0 0 0 0 0 0 127 0" result="hardAlpha"/>
<feOffset dy="1"/>
<feGaussianBlur stdDeviation="1.5"/>
<feColorMatrix type="matrix" values="0 0 0 0 0 0 0 0 0 0 0 0 0 0 0 0 0 0 0.3 0"/>
<feBlend mode="normal" in2="BackgroundImageFix" result="effect1_dropShadow_180_156"/>
<feColorMatrix in="SourceAlpha" type="matrix" values="0 0 0 0 0 0 0 0 0 0 0 0 0 0 0 0 0 0 127 0" result="hardAlpha"/>
<feMorphology radius="3" operator="dilate" in="SourceAlpha" result="effect2_dropShadow_180_156"/>
<feOffset dy="4"/>
<feGaussianBlur stdDeviation="4"/>
<feColorMatrix type="matrix" values="0 0 0 0 0 0 0 0 0 0 0 0 0 0 0 0 0 0 0.15 0"/>
<feBlend mode="normal" in2="effect1_dropShadow_180_156" result="effect2_dropShadow_180_156"/>
<feBlend mode="normal" in="SourceGraphic" in2="effect2_dropShadow_180_156" result="shape"/>
</filter>
</defs>
</svg>
