<svg width="140" height="162" viewBox="0 0 140 162" fill="none" xmlns="http://www.w3.org/2000/svg">
<g filter="url(#filter0_dd_180_155)">
<rect x="11" y="7" width="118" height="140" rx="16" fill="white"/>
<path fill-rule="evenodd" clip-rule="evenodd" d="M46.06 68.59L47.41 69.94C48.2 70.72 48.2 71.99 47.41 72.77L34.18 86H30V81.82L40.4 71.41L43.23 68.59C44.01 67.81 45.28 67.81 46.06 68.59ZM32 84L33.41 84.06L43.23 74.23L41.82 72.82L32 82.64V84Z" fill="#FF7575"/>
<path d="M64.4072 62.0469H67.9277C68.6842 62.0469 69.3291 62.1608 69.8623 62.3887C70.3955 62.6165 70.8034 62.9538 71.0859 63.4004C71.373 63.8424 71.5166 64.3893 71.5166 65.041C71.5166 65.5378 71.4255 65.9753 71.2432 66.3535C71.0609 66.7318 70.8034 67.0508 70.4707 67.3105C70.138 67.5658 69.7415 67.764 69.2812 67.9053L68.7617 68.1582H65.5967L65.583 66.7979H67.9551C68.3652 66.7979 68.707 66.7249 68.9805 66.5791C69.2539 66.4333 69.459 66.235 69.5957 65.9844C69.737 65.7292 69.8076 65.4421 69.8076 65.123C69.8076 64.7767 69.7393 64.4759 69.6025 64.2207C69.4704 63.9609 69.2653 63.7627 68.9873 63.626C68.7093 63.4847 68.3561 63.4141 67.9277 63.4141H66.123V72H64.4072V62.0469ZM70.0879 72L67.75 67.5293L69.5479 67.5225L71.9199 71.9111V72H70.0879ZM76.4223 72.1367C75.8754 72.1367 75.3809 72.0479 74.9389 71.8701C74.5014 71.6878 74.1277 71.4349 73.8178 71.1113C73.5124 70.7878 73.2777 70.4072 73.1137 69.9697C72.9496 69.5322 72.8676 69.0605 72.8676 68.5547V68.2812C72.8676 67.7025 72.9519 67.1784 73.1205 66.709C73.2891 66.2396 73.5238 65.8385 73.8246 65.5059C74.1254 65.1686 74.4809 64.9111 74.891 64.7334C75.3012 64.5557 75.7455 64.4668 76.224 64.4668C76.7527 64.4668 77.2152 64.5557 77.6117 64.7334C78.0082 64.9111 78.3363 65.1618 78.5961 65.4854C78.8604 65.8044 79.0564 66.1849 79.184 66.627C79.3161 67.069 79.3822 67.5566 79.3822 68.0898V68.7939H73.6674V67.6113H77.7553V67.4814C77.7462 67.1852 77.6869 66.9072 77.5775 66.6475C77.4727 66.3877 77.3109 66.1781 77.0922 66.0186C76.8734 65.859 76.5818 65.7793 76.2172 65.7793C75.9438 65.7793 75.6999 65.8385 75.4857 65.957C75.2761 66.071 75.1007 66.2373 74.9594 66.4561C74.8181 66.6748 74.7087 66.9391 74.6313 67.249C74.5583 67.5544 74.5219 67.8984 74.5219 68.2812V68.5547C74.5219 68.8783 74.5652 69.179 74.6518 69.457C74.7429 69.7305 74.8751 69.9697 75.0482 70.1748C75.2214 70.3799 75.4311 70.5417 75.6771 70.6602C75.9232 70.7741 76.2035 70.8311 76.518 70.8311C76.9145 70.8311 77.2676 70.7513 77.5775 70.5918C77.8874 70.4323 78.1563 70.2067 78.3842 69.915L79.2523 70.7559C79.0928 70.9883 78.8855 71.2116 78.6303 71.4258C78.3751 71.6354 78.0629 71.8063 77.6938 71.9385C77.3292 72.0706 76.9053 72.1367 76.4223 72.1367ZM82.4148 66.1074V72H80.7674V64.6035H82.3191L82.4148 66.1074ZM82.1482 68.0283L81.5877 68.0215C81.5877 67.5111 81.6515 67.0394 81.7791 66.6064C81.9067 66.1735 82.0936 65.7975 82.3396 65.4785C82.5857 65.1549 82.8911 64.9066 83.2557 64.7334C83.6248 64.5557 84.0509 64.4668 84.534 64.4668C84.8712 64.4668 85.1788 64.5169 85.4568 64.6172C85.7394 64.7129 85.9832 64.8656 86.1883 65.0752C86.3979 65.2848 86.5574 65.5537 86.6668 65.8818C86.7807 66.21 86.8377 66.6064 86.8377 67.0713V72H85.1902V67.2148C85.1902 66.8548 85.1355 66.5723 85.0262 66.3672C84.9214 66.1621 84.7687 66.0163 84.5682 65.9297C84.3722 65.8385 84.1375 65.793 83.8641 65.793C83.5542 65.793 83.2898 65.8522 83.0711 65.9707C82.8569 66.0892 82.6814 66.251 82.5447 66.4561C82.408 66.6611 82.3077 66.8981 82.2439 67.167C82.1801 67.4359 82.1482 67.723 82.1482 68.0283ZM86.7352 67.5908L85.9627 67.7617C85.9627 67.3151 86.0242 66.8936 86.1473 66.4971C86.2749 66.096 86.4594 65.7451 86.701 65.4443C86.9471 65.139 87.2501 64.8997 87.6102 64.7266C87.9702 64.5534 88.3826 64.4668 88.8475 64.4668C89.2257 64.4668 89.563 64.5192 89.8592 64.624C90.16 64.7243 90.4152 64.8838 90.6248 65.1025C90.8344 65.3213 90.9939 65.6061 91.1033 65.957C91.2127 66.3034 91.2674 66.7227 91.2674 67.2148V72H89.6131V67.208C89.6131 66.8343 89.5584 66.5449 89.449 66.3398C89.3442 66.1348 89.1938 65.9935 88.9979 65.916C88.8019 65.834 88.5672 65.793 88.2938 65.793C88.0385 65.793 87.813 65.8408 87.617 65.9365C87.4256 66.0277 87.2638 66.1576 87.1316 66.3262C86.9995 66.4902 86.8992 66.6794 86.8309 66.8936C86.7671 67.1077 86.7352 67.3402 86.7352 67.5908ZM92.7482 68.3838V68.2266C92.7482 67.6934 92.8257 67.1989 92.9807 66.7432C93.1356 66.2829 93.3589 65.8841 93.6506 65.5469C93.9468 65.2051 94.3068 64.9408 94.7307 64.7539C95.159 64.5625 95.6421 64.4668 96.1799 64.4668C96.7222 64.4668 97.2053 64.5625 97.6291 64.7539C98.0575 64.9408 98.4198 65.2051 98.716 65.5469C99.0122 65.8841 99.2378 66.2829 99.3928 66.7432C99.5477 67.1989 99.6252 67.6934 99.6252 68.2266V68.3838C99.6252 68.917 99.5477 69.4115 99.3928 69.8672C99.2378 70.3229 99.0122 70.7217 98.716 71.0635C98.4198 71.4007 98.0598 71.665 97.6359 71.8564C97.2121 72.0433 96.7313 72.1367 96.1936 72.1367C95.6512 72.1367 95.1659 72.0433 94.7375 71.8564C94.3137 71.665 93.9536 71.4007 93.6574 71.0635C93.3612 70.7217 93.1356 70.3229 92.9807 69.8672C92.8257 69.4115 92.7482 68.917 92.7482 68.3838ZM94.3957 68.2266V68.3838C94.3957 68.7165 94.4299 69.0309 94.4982 69.3271C94.5666 69.6234 94.6737 69.8831 94.8195 70.1064C94.9654 70.3298 95.1522 70.5052 95.3801 70.6328C95.6079 70.7604 95.8791 70.8242 96.1936 70.8242C96.4989 70.8242 96.7632 70.7604 96.9865 70.6328C97.2144 70.5052 97.4012 70.3298 97.5471 70.1064C97.6929 69.8831 97.8 69.6234 97.8684 69.3271C97.9413 69.0309 97.9777 68.7165 97.9777 68.3838V68.2266C97.9777 67.8984 97.9413 67.5885 97.8684 67.2969C97.8 67.0007 97.6906 66.7386 97.5402 66.5107C97.3944 66.2829 97.2076 66.1051 96.9797 65.9775C96.7564 65.8454 96.4898 65.7793 96.1799 65.7793C95.87 65.7793 95.6011 65.8454 95.3732 65.9775C95.1499 66.1051 94.9654 66.2829 94.8195 66.5107C94.6737 66.7386 94.5666 67.0007 94.4982 67.2969C94.4299 67.5885 94.3957 67.8984 94.3957 68.2266ZM103.403 70.6943L105.214 64.6035H106.923L104.353 72H103.287L103.403 70.6943ZM102.015 64.6035L103.861 70.7217L103.95 72H102.883L100.299 64.6035H102.015ZM111.207 72.1367C110.66 72.1367 110.166 72.0479 109.724 71.8701C109.286 71.6878 108.912 71.4349 108.603 71.1113C108.297 70.7878 108.062 70.4072 107.898 69.9697C107.734 69.5322 107.652 69.0605 107.652 68.5547V68.2812C107.652 67.7025 107.737 67.1784 107.905 66.709C108.074 66.2396 108.309 65.8385 108.609 65.5059C108.91 65.1686 109.266 64.9111 109.676 64.7334C110.086 64.5557 110.53 64.4668 111.009 64.4668C111.537 64.4668 112 64.5557 112.396 64.7334C112.793 64.9111 113.121 65.1618 113.381 65.4854C113.645 65.8044 113.841 66.1849 113.969 66.627C114.101 67.069 114.167 67.5566 114.167 68.0898V68.7939H108.452V67.6113H112.54V67.4814C112.531 67.1852 112.472 66.9072 112.362 66.6475C112.257 66.3877 112.096 66.1781 111.877 66.0186C111.658 65.859 111.367 65.7793 111.002 65.7793C110.729 65.7793 110.485 65.8385 110.271 65.957C110.061 66.071 109.885 66.2373 109.744 66.4561C109.603 66.6748 109.493 66.9391 109.416 67.249C109.343 67.5544 109.307 67.8984 109.307 68.2812V68.5547C109.307 68.8783 109.35 69.179 109.437 69.457C109.528 69.7305 109.66 69.9697 109.833 70.1748C110.006 70.3799 110.216 70.5417 110.462 70.6602C110.708 70.7741 110.988 70.8311 111.303 70.8311C111.699 70.8311 112.052 70.7513 112.362 70.5918C112.672 70.4323 112.941 70.2067 113.169 69.915L114.037 70.7559C113.878 70.9883 113.67 71.2116 113.415 71.4258C113.16 71.6354 112.848 71.8063 112.479 71.9385C112.114 72.0706 111.69 72.1367 111.207 72.1367ZM73.3691 88.7598H75.0781C75.0234 89.4115 74.8411 89.9925 74.5312 90.5029C74.2214 91.0088 73.7861 91.4076 73.2256 91.6992C72.665 91.9909 71.9837 92.1367 71.1816 92.1367C70.5664 92.1367 70.0127 92.0273 69.5205 91.8086C69.0283 91.5853 68.6068 91.2708 68.2559 90.8652C67.9049 90.4551 67.6361 89.9606 67.4492 89.3818C67.2669 88.8031 67.1758 88.1559 67.1758 87.4404V86.6133C67.1758 85.8978 67.2692 85.2507 67.4561 84.6719C67.6475 84.0931 67.9209 83.5986 68.2764 83.1885C68.6318 82.7738 69.0579 82.457 69.5547 82.2383C70.056 82.0195 70.6188 81.9102 71.2432 81.9102C72.0361 81.9102 72.7061 82.056 73.2529 82.3477C73.7998 82.6393 74.2236 83.0426 74.5244 83.5576C74.8298 84.0726 75.0166 84.6628 75.085 85.3281H73.376C73.3304 84.8997 73.2301 84.5329 73.0752 84.2275C72.9248 83.9222 72.7015 83.6898 72.4053 83.5303C72.109 83.3662 71.7217 83.2842 71.2432 83.2842C70.8512 83.2842 70.5094 83.3571 70.2178 83.5029C69.9261 83.6488 69.6823 83.863 69.4863 84.1455C69.2904 84.4281 69.1423 84.7767 69.042 85.1914C68.9463 85.6016 68.8984 86.071 68.8984 86.5996V87.4404C68.8984 87.9417 68.9417 88.3975 69.0283 88.8076C69.1195 89.2132 69.2562 89.5618 69.4385 89.8535C69.6253 90.1452 69.8623 90.3708 70.1494 90.5303C70.4365 90.6898 70.7806 90.7695 71.1816 90.7695C71.6693 90.7695 72.0635 90.6921 72.3643 90.5371C72.6696 90.3822 72.8997 90.1566 73.0547 89.8604C73.2142 89.5596 73.319 89.1927 73.3691 88.7598ZM76.2582 88.3838V88.2266C76.2582 87.6934 76.3357 87.1989 76.4906 86.7432C76.6456 86.2829 76.8689 85.8841 77.1605 85.5469C77.4568 85.2051 77.8168 84.9408 78.2406 84.7539C78.669 84.5625 79.1521 84.4668 79.6898 84.4668C80.2322 84.4668 80.7152 84.5625 81.1391 84.7539C81.5674 84.9408 81.9298 85.2051 82.226 85.5469C82.5222 85.8841 82.7478 86.2829 82.9027 86.7432C83.0577 87.1989 83.1352 87.6934 83.1352 88.2266V88.3838C83.1352 88.917 83.0577 89.4115 82.9027 89.8672C82.7478 90.3229 82.5222 90.7217 82.226 91.0635C81.9298 91.4007 81.5697 91.665 81.1459 91.8564C80.7221 92.0433 80.2413 92.1367 79.7035 92.1367C79.1612 92.1367 78.6758 92.0433 78.2475 91.8564C77.8236 91.665 77.4636 91.4007 77.1674 91.0635C76.8712 90.7217 76.6456 90.3229 76.4906 89.8672C76.3357 89.4115 76.2582 88.917 76.2582 88.3838ZM77.9057 88.2266V88.3838C77.9057 88.7165 77.9398 89.0309 78.0082 89.3271C78.0766 89.6234 78.1837 89.8831 78.3295 90.1064C78.4753 90.3298 78.6622 90.5052 78.89 90.6328C79.1179 90.7604 79.3891 90.8242 79.7035 90.8242C80.0089 90.8242 80.2732 90.7604 80.4965 90.6328C80.7243 90.5052 80.9112 90.3298 81.057 90.1064C81.2029 89.8831 81.31 89.6234 81.3783 89.3271C81.4512 89.0309 81.4877 88.7165 81.4877 88.3838V88.2266C81.4877 87.8984 81.4512 87.5885 81.3783 87.2969C81.31 87.0007 81.2006 86.7386 81.0502 86.5107C80.9044 86.2829 80.7175 86.1051 80.4896 85.9775C80.2663 85.8454 79.9997 85.7793 79.6898 85.7793C79.3799 85.7793 79.1111 85.8454 78.8832 85.9775C78.6599 86.1051 78.4753 86.2829 78.3295 86.5107C78.1837 86.7386 78.0766 87.0007 78.0082 87.2969C77.9398 87.5885 77.9057 87.8984 77.9057 88.2266ZM89.0662 90.2568V84.6035H90.7205V92H89.1619L89.0662 90.2568ZM89.2986 88.7188L89.8523 88.7051C89.8523 89.2018 89.7977 89.6598 89.6883 90.0791C89.5789 90.4938 89.4103 90.8561 89.1824 91.166C88.9546 91.4714 88.6629 91.7106 88.3074 91.8838C87.952 92.0524 87.5258 92.1367 87.0291 92.1367C86.6691 92.1367 86.3387 92.0843 86.0379 91.9795C85.7371 91.8747 85.4773 91.7129 85.2586 91.4941C85.0444 91.2754 84.8781 90.9906 84.7596 90.6396C84.6411 90.2887 84.5818 89.8695 84.5818 89.3818V84.6035H86.2293V89.3955C86.2293 89.6644 86.2612 89.89 86.325 90.0723C86.3888 90.25 86.4754 90.3936 86.5848 90.5029C86.6941 90.6123 86.8217 90.6898 86.9676 90.7354C87.1134 90.7809 87.2684 90.8037 87.4324 90.8037C87.9018 90.8037 88.271 90.7126 88.5398 90.5303C88.8133 90.3434 89.007 90.0928 89.1209 89.7783C89.2394 89.4639 89.2986 89.1107 89.2986 88.7188ZM94.1633 86.0117V92H92.5158V84.6035H94.0881L94.1633 86.0117ZM96.426 84.5557L96.4123 86.0869C96.312 86.0687 96.2027 86.055 96.0842 86.0459C95.9702 86.0368 95.8563 86.0322 95.7424 86.0322C95.4598 86.0322 95.2115 86.0732 94.9973 86.1553C94.7831 86.2327 94.6031 86.3467 94.4572 86.4971C94.3159 86.6429 94.2066 86.8206 94.1291 87.0303C94.0516 87.2399 94.0061 87.4746 93.9924 87.7344L93.6164 87.7617C93.6164 87.2969 93.662 86.8662 93.7531 86.4697C93.8443 86.0732 93.981 85.7246 94.1633 85.4238C94.3501 85.123 94.5826 84.8883 94.8605 84.7197C95.1431 84.5511 95.4689 84.4668 95.8381 84.4668C95.9383 84.4668 96.0454 84.4759 96.1594 84.4941C96.2779 84.5124 96.3667 84.5329 96.426 84.5557ZM101.708 89.9971C101.708 89.833 101.667 89.6849 101.585 89.5527C101.503 89.416 101.345 89.293 101.113 89.1836C100.885 89.0742 100.548 88.974 100.101 88.8828C99.7092 88.7962 99.3492 88.6937 99.0211 88.5752C98.6975 88.4521 98.4195 88.304 98.1871 88.1309C97.9547 87.9577 97.7747 87.7526 97.6471 87.5156C97.5195 87.2786 97.4557 87.0052 97.4557 86.6953C97.4557 86.3945 97.5217 86.1097 97.6539 85.8408C97.7861 85.5719 97.9752 85.335 98.2213 85.1299C98.4674 84.9248 98.7659 84.763 99.1168 84.6445C99.4723 84.526 99.8688 84.4668 100.306 84.4668C100.926 84.4668 101.457 84.5716 101.899 84.7812C102.346 84.9863 102.687 85.2666 102.924 85.6221C103.161 85.973 103.28 86.3695 103.28 86.8115H101.632C101.632 86.6156 101.582 86.4333 101.482 86.2646C101.386 86.0915 101.24 85.9525 101.045 85.8477C100.849 85.7383 100.602 85.6836 100.306 85.6836C100.024 85.6836 99.789 85.7292 99.6021 85.8203C99.4199 85.9069 99.2831 86.0208 99.192 86.1621C99.1054 86.3034 99.0621 86.4583 99.0621 86.627C99.0621 86.75 99.0849 86.8617 99.1305 86.9619C99.1806 87.0576 99.2626 87.1465 99.3766 87.2285C99.4905 87.306 99.6454 87.3789 99.8414 87.4473C100.042 87.5156 100.293 87.5817 100.593 87.6455C101.158 87.764 101.644 87.9167 102.049 88.1035C102.46 88.2858 102.774 88.5228 102.993 88.8145C103.212 89.1016 103.321 89.4661 103.321 89.9082C103.321 90.2363 103.25 90.5371 103.109 90.8105C102.972 91.0794 102.772 91.3141 102.507 91.5146C102.243 91.7106 101.926 91.8633 101.557 91.9727C101.193 92.082 100.782 92.1367 100.327 92.1367C99.6568 92.1367 99.0895 92.0182 98.6246 91.7812C98.1598 91.5397 97.8066 91.2321 97.565 90.8584C97.3281 90.4801 97.2096 90.0882 97.2096 89.6826H98.8023C98.8206 89.988 98.9049 90.2318 99.0553 90.4141C99.2102 90.5918 99.4016 90.7217 99.6295 90.8037C99.8619 90.8812 100.101 90.9199 100.347 90.9199C100.643 90.9199 100.892 90.8812 101.092 90.8037C101.293 90.7217 101.446 90.6123 101.55 90.4756C101.655 90.3343 101.708 90.1748 101.708 89.9971ZM108.124 92.1367C107.577 92.1367 107.083 92.0479 106.641 91.8701C106.203 91.6878 105.829 91.4349 105.52 91.1113C105.214 90.7878 104.979 90.4072 104.815 89.9697C104.651 89.5322 104.569 89.0605 104.569 88.5547V88.2812C104.569 87.7025 104.654 87.1784 104.822 86.709C104.991 86.2396 105.226 85.8385 105.526 85.5059C105.827 85.1686 106.183 84.9111 106.593 84.7334C107.003 84.5557 107.447 84.4668 107.926 84.4668C108.454 84.4668 108.917 84.5557 109.313 84.7334C109.71 84.9111 110.038 85.1618 110.298 85.4854C110.562 85.8044 110.758 86.1849 110.886 86.627C111.018 87.069 111.084 87.5566 111.084 88.0898V88.7939H105.369V87.6113H109.457V87.4814C109.448 87.1852 109.389 86.9072 109.279 86.6475C109.174 86.3877 109.013 86.1781 108.794 86.0186C108.575 85.859 108.284 85.7793 107.919 85.7793C107.646 85.7793 107.402 85.8385 107.188 85.957C106.978 86.071 106.802 86.2373 106.661 86.4561C106.52 86.6748 106.41 86.9391 106.333 87.249C106.26 87.5544 106.224 87.8984 106.224 88.2812V88.5547C106.224 88.8783 106.267 89.179 106.354 89.457C106.445 89.7305 106.577 89.9697 106.75 90.1748C106.923 90.3799 107.133 90.5417 107.379 90.6602C107.625 90.7741 107.905 90.8311 108.22 90.8311C108.616 90.8311 108.969 90.7513 109.279 90.5918C109.589 90.4323 109.858 90.2067 110.086 89.915L110.954 90.7559C110.795 90.9883 110.587 91.2116 110.332 91.4258C110.077 91.6354 109.765 91.8063 109.396 91.9385C109.031 92.0706 108.607 92.1367 108.124 92.1367Z" fill="#FF7575"/>
</g>
<defs>
<filter id="filter0_dd_180_155" x="0" y="0" width="140" height="162" filterUnits="userSpaceOnUse" color-interpolation-filters="sRGB">
<feFlood flood-opacity="0" result="BackgroundImageFix"/>
<feColorMatrix in="SourceAlpha" type="matrix" values="0 0 0 0 0 0 0 0 0 0 0 0 0 0 0 0 0 0 127 0" result="hardAlpha"/>
<feOffset dy="1"/>
<feGaussianBlur stdDeviation="1.5"/>
<feColorMatrix type="matrix" values="0 0 0 0 0 0 0 0 0 0 0 0 0 0 0 0 0 0 0.3 0"/>
<feBlend mode="normal" in2="BackgroundImageFix" result="effect1_dropShadow_180_155"/>
<feColorMatrix in="SourceAlpha" type="matrix" values="0 0 0 0 0 0 0 0 0 0 0 0 0 0 0 0 0 0 127 0" result="hardAlpha"/>
<feMorphology radius="3" operator="dilate" in="SourceAlpha" result="effect2_dropShadow_180_155"/>
<feOffset dy="4"/>
<feGaussianBlur stdDeviation="4"/>
<feColorMatrix type="matrix" values="0 0 0 0 0 0 0 0 0 0 0 0 0 0 0 0 0 0 0.15 0"/>
<feBlend mode="normal" in2="effect1_dropShadow_180_155" result="effect2_dropShadow_180_155"/>
<feBlend mode="normal" in="SourceGraphic" in2="effect2_dropShadow_180_155" result="shape"/>
</filter>
</defs>
</svg>
