<svg width="140" height="162" viewBox="0 0 140 162" fill="none" xmlns="http://www.w3.org/2000/svg">
<g filter="url(#filter0_dd_180_157)">
<rect x="11" y="7" width="118" height="140" rx="16" fill="white"/>
<path fill-rule="evenodd" clip-rule="evenodd" d="M46.06 68.59L47.41 69.94C48.2 70.72 48.2 71.99 47.41 72.77L34.18 86H30V81.82L40.4 71.41L43.23 68.59C44.01 67.81 45.28 67.81 46.06 68.59ZM32 84L33.41 84.06L43.23 74.23L41.82 72.82L32 82.64V84Z" fill="#FF7575"/>
<path d="M64.4072 62.0469H67.9277C68.6842 62.0469 69.3291 62.1608 69.8623 62.3887C70.3955 62.6165 70.8034 62.9538 71.0859 63.4004C71.373 63.8424 71.5166 64.3893 71.5166 65.041C71.5166 65.5378 71.4255 65.9753 71.2432 66.3535C71.0609 66.7318 70.8034 67.0508 70.4707 67.3105C70.138 67.5658 69.7415 67.764 69.2812 67.9053L68.7617 68.1582H65.5967L65.583 66.7979H67.9551C68.3652 66.7979 68.707 66.7249 68.9805 66.5791C69.2539 66.4333 69.459 66.235 69.5957 65.9844C69.737 65.7292 69.8076 65.4421 69.8076 65.123C69.8076 64.7767 69.7393 64.4759 69.6025 64.2207C69.4704 63.9609 69.2653 63.7627 68.9873 63.626C68.7093 63.4847 68.3561 63.4141 67.9277 63.4141H66.123V72H64.4072V62.0469ZM70.0879 72L67.75 67.5293L69.5479 67.5225L71.9199 71.9111V72H70.0879ZM76.4223 72.1367C75.8754 72.1367 75.3809 72.0479 74.9389 71.8701C74.5014 71.6878 74.1277 71.4349 73.8178 71.1113C73.5124 70.7878 73.2777 70.4072 73.1137 69.9697C72.9496 69.5322 72.8676 69.0605 72.8676 68.5547V68.2812C72.8676 67.7025 72.9519 67.1784 73.1205 66.709C73.2891 66.2396 73.5238 65.8385 73.8246 65.5059C74.1254 65.1686 74.4809 64.9111 74.891 64.7334C75.3012 64.5557 75.7455 64.4668 76.224 64.4668C76.7527 64.4668 77.2152 64.5557 77.6117 64.7334C78.0082 64.9111 78.3363 65.1618 78.5961 65.4854C78.8604 65.8044 79.0564 66.1849 79.184 66.627C79.3161 67.069 79.3822 67.5566 79.3822 68.0898V68.7939H73.6674V67.6113H77.7553V67.4814C77.7462 67.1852 77.6869 66.9072 77.5775 66.6475C77.4727 66.3877 77.3109 66.1781 77.0922 66.0186C76.8734 65.859 76.5818 65.7793 76.2172 65.7793C75.9438 65.7793 75.6999 65.8385 75.4857 65.957C75.2761 66.071 75.1007 66.2373 74.9594 66.4561C74.8181 66.6748 74.7087 66.9391 74.6313 67.249C74.5583 67.5544 74.5219 67.8984 74.5219 68.2812V68.5547C74.5219 68.8783 74.5652 69.179 74.6518 69.457C74.7429 69.7305 74.8751 69.9697 75.0482 70.1748C75.2214 70.3799 75.4311 70.5417 75.6771 70.6602C75.9232 70.7741 76.2035 70.8311 76.518 70.8311C76.9145 70.8311 77.2676 70.7513 77.5775 70.5918C77.8874 70.4323 78.1563 70.2067 78.3842 69.915L79.2523 70.7559C79.0928 70.9883 78.8855 71.2116 78.6303 71.4258C78.3751 71.6354 78.0629 71.8063 77.6938 71.9385C77.3292 72.0706 76.9053 72.1367 76.4223 72.1367ZM82.4148 66.1074V72H80.7674V64.6035H82.3191L82.4148 66.1074ZM82.1482 68.0283L81.5877 68.0215C81.5877 67.5111 81.6515 67.0394 81.7791 66.6064C81.9067 66.1735 82.0936 65.7975 82.3396 65.4785C82.5857 65.1549 82.8911 64.9066 83.2557 64.7334C83.6248 64.5557 84.0509 64.4668 84.534 64.4668C84.8712 64.4668 85.1788 64.5169 85.4568 64.6172C85.7394 64.7129 85.9832 64.8656 86.1883 65.0752C86.3979 65.2848 86.5574 65.5537 86.6668 65.8818C86.7807 66.21 86.8377 66.6064 86.8377 67.0713V72H85.1902V67.2148C85.1902 66.8548 85.1355 66.5723 85.0262 66.3672C84.9214 66.1621 84.7687 66.0163 84.5682 65.9297C84.3722 65.8385 84.1375 65.793 83.8641 65.793C83.5542 65.793 83.2898 65.8522 83.0711 65.9707C82.8569 66.0892 82.6814 66.251 82.5447 66.4561C82.408 66.6611 82.3077 66.8981 82.2439 67.167C82.1801 67.4359 82.1482 67.723 82.1482 68.0283ZM86.7352 67.5908L85.9627 67.7617C85.9627 67.3151 86.0242 66.8936 86.1473 66.4971C86.2749 66.096 86.4594 65.7451 86.701 65.4443C86.9471 65.139 87.2501 64.8997 87.6102 64.7266C87.9702 64.5534 88.3826 64.4668 88.8475 64.4668C89.2257 64.4668 89.563 64.5192 89.8592 64.624C90.16 64.7243 90.4152 64.8838 90.6248 65.1025C90.8344 65.3213 90.9939 65.6061 91.1033 65.957C91.2127 66.3034 91.2674 66.7227 91.2674 67.2148V72H89.6131V67.208C89.6131 66.8343 89.5584 66.5449 89.449 66.3398C89.3442 66.1348 89.1938 65.9935 88.9979 65.916C88.8019 65.834 88.5672 65.793 88.2938 65.793C88.0385 65.793 87.813 65.8408 87.617 65.9365C87.4256 66.0277 87.2638 66.1576 87.1316 66.3262C86.9995 66.4902 86.8992 66.6794 86.8309 66.8936C86.7671 67.1077 86.7352 67.3402 86.7352 67.5908ZM92.7482 68.3838V68.2266C92.7482 67.6934 92.8257 67.1989 92.9807 66.7432C93.1356 66.2829 93.3589 65.8841 93.6506 65.5469C93.9468 65.2051 94.3068 64.9408 94.7307 64.7539C95.159 64.5625 95.6421 64.4668 96.1799 64.4668C96.7222 64.4668 97.2053 64.5625 97.6291 64.7539C98.0575 64.9408 98.4198 65.2051 98.716 65.5469C99.0122 65.8841 99.2378 66.2829 99.3928 66.7432C99.5477 67.1989 99.6252 67.6934 99.6252 68.2266V68.3838C99.6252 68.917 99.5477 69.4115 99.3928 69.8672C99.2378 70.3229 99.0122 70.7217 98.716 71.0635C98.4198 71.4007 98.0598 71.665 97.6359 71.8564C97.2121 72.0433 96.7313 72.1367 96.1936 72.1367C95.6512 72.1367 95.1659 72.0433 94.7375 71.8564C94.3137 71.665 93.9536 71.4007 93.6574 71.0635C93.3612 70.7217 93.1356 70.3229 92.9807 69.8672C92.8257 69.4115 92.7482 68.917 92.7482 68.3838ZM94.3957 68.2266V68.3838C94.3957 68.7165 94.4299 69.0309 94.4982 69.3271C94.5666 69.6234 94.6737 69.8831 94.8195 70.1064C94.9654 70.3298 95.1522 70.5052 95.3801 70.6328C95.6079 70.7604 95.8791 70.8242 96.1936 70.8242C96.4989 70.8242 96.7632 70.7604 96.9865 70.6328C97.2144 70.5052 97.4012 70.3298 97.5471 70.1064C97.6929 69.8831 97.8 69.6234 97.8684 69.3271C97.9413 69.0309 97.9777 68.7165 97.9777 68.3838V68.2266C97.9777 67.8984 97.9413 67.5885 97.8684 67.2969C97.8 67.0007 97.6906 66.7386 97.5402 66.5107C97.3944 66.2829 97.2076 66.1051 96.9797 65.9775C96.7564 65.8454 96.4898 65.7793 96.1799 65.7793C95.87 65.7793 95.6011 65.8454 95.3732 65.9775C95.1499 66.1051 94.9654 66.2829 94.8195 66.5107C94.6737 66.7386 94.5666 67.0007 94.4982 67.2969C94.4299 67.5885 94.3957 67.8984 94.3957 68.2266ZM103.403 70.6943L105.214 64.6035H106.923L104.353 72H103.287L103.403 70.6943ZM102.015 64.6035L103.861 70.7217L103.95 72H102.883L100.299 64.6035H102.015ZM111.207 72.1367C110.66 72.1367 110.166 72.0479 109.724 71.8701C109.286 71.6878 108.912 71.4349 108.603 71.1113C108.297 70.7878 108.062 70.4072 107.898 69.9697C107.734 69.5322 107.652 69.0605 107.652 68.5547V68.2812C107.652 67.7025 107.737 67.1784 107.905 66.709C108.074 66.2396 108.309 65.8385 108.609 65.5059C108.91 65.1686 109.266 64.9111 109.676 64.7334C110.086 64.5557 110.53 64.4668 111.009 64.4668C111.537 64.4668 112 64.5557 112.396 64.7334C112.793 64.9111 113.121 65.1618 113.381 65.4854C113.645 65.8044 113.841 66.1849 113.969 66.627C114.101 67.069 114.167 67.5566 114.167 68.0898V68.7939H108.452V67.6113H112.54V67.4814C112.531 67.1852 112.472 66.9072 112.362 66.6475C112.257 66.3877 112.096 66.1781 111.877 66.0186C111.658 65.859 111.367 65.7793 111.002 65.7793C110.729 65.7793 110.485 65.8385 110.271 65.957C110.061 66.071 109.885 66.2373 109.744 66.4561C109.603 66.6748 109.493 66.9391 109.416 67.249C109.343 67.5544 109.307 67.8984 109.307 68.2812V68.5547C109.307 68.8783 109.35 69.179 109.437 69.457C109.528 69.7305 109.66 69.9697 109.833 70.1748C110.006 70.3799 110.216 70.5417 110.462 70.6602C110.708 70.7741 110.988 70.8311 111.303 70.8311C111.699 70.8311 112.052 70.7513 112.362 70.5918C112.672 70.4323 112.941 70.2067 113.169 69.915L114.037 70.7559C113.878 70.9883 113.67 71.2116 113.415 71.4258C113.16 71.6354 112.848 71.8063 112.479 71.9385C112.114 72.0706 111.69 72.1367 111.207 72.1367ZM71.1658 88.2881H68.575V86.9277H71.1658C71.617 86.9277 71.9816 86.8548 72.2596 86.709C72.5376 86.5632 72.7404 86.3626 72.868 86.1074C73.0001 85.8477 73.0662 85.5514 73.0662 85.2188C73.0662 84.9043 73.0001 84.6104 72.868 84.3369C72.7404 84.0589 72.5376 83.8356 72.2596 83.667C71.9816 83.4984 71.617 83.4141 71.1658 83.4141H69.1014V92H67.3855V82.0469H71.1658C71.936 82.0469 72.59 82.1836 73.1277 82.457C73.6701 82.7259 74.0825 83.0996 74.365 83.5781C74.6476 84.0521 74.7889 84.5944 74.7889 85.2051C74.7889 85.8477 74.6476 86.3991 74.365 86.8594C74.0825 87.3197 73.6701 87.6729 73.1277 87.9189C72.59 88.165 71.936 88.2881 71.1658 88.2881ZM77.9172 86.0117V92H76.2697V84.6035H77.842L77.9172 86.0117ZM80.1799 84.5557L80.1662 86.0869C80.066 86.0687 79.9566 86.055 79.8381 86.0459C79.7242 86.0368 79.6102 86.0322 79.4963 86.0322C79.2137 86.0322 78.9654 86.0732 78.7512 86.1553C78.537 86.2327 78.357 86.3467 78.2111 86.4971C78.0699 86.6429 77.9605 86.8206 77.883 87.0303C77.8055 87.2399 77.76 87.4746 77.7463 87.7344L77.3703 87.7617C77.3703 87.2969 77.4159 86.8662 77.507 86.4697C77.5982 86.0732 77.7349 85.7246 77.9172 85.4238C78.104 85.123 78.3365 84.8883 78.6145 84.7197C78.897 84.5511 79.2229 84.4668 79.592 84.4668C79.6923 84.4668 79.7994 84.4759 79.9133 84.4941C80.0318 84.5124 80.1206 84.5329 80.1799 84.5557ZM80.8199 88.3838V88.2266C80.8199 87.6934 80.8974 87.1989 81.0523 86.7432C81.2073 86.2829 81.4306 85.8841 81.7223 85.5469C82.0185 85.2051 82.3785 84.9408 82.8023 84.7539C83.2307 84.5625 83.7138 84.4668 84.2516 84.4668C84.7939 84.4668 85.277 84.5625 85.7008 84.7539C86.1292 84.9408 86.4915 85.2051 86.7877 85.5469C87.0839 85.8841 87.3095 86.2829 87.4645 86.7432C87.6194 87.1989 87.6969 87.6934 87.6969 88.2266V88.3838C87.6969 88.917 87.6194 89.4115 87.4645 89.8672C87.3095 90.3229 87.0839 90.7217 86.7877 91.0635C86.4915 91.4007 86.1314 91.665 85.7076 91.8564C85.2838 92.0433 84.803 92.1367 84.2652 92.1367C83.7229 92.1367 83.2376 92.0433 82.8092 91.8564C82.3854 91.665 82.0253 91.4007 81.7291 91.0635C81.4329 90.7217 81.2073 90.3229 81.0523 89.8672C80.8974 89.4115 80.8199 88.917 80.8199 88.3838ZM82.4674 88.2266V88.3838C82.4674 88.7165 82.5016 89.0309 82.5699 89.3271C82.6383 89.6234 82.7454 89.8831 82.8912 90.1064C83.037 90.3298 83.2239 90.5052 83.4518 90.6328C83.6796 90.7604 83.9508 90.8242 84.2652 90.8242C84.5706 90.8242 84.8349 90.7604 85.0582 90.6328C85.2861 90.5052 85.4729 90.3298 85.6188 90.1064C85.7646 89.8831 85.8717 89.6234 85.94 89.3271C86.013 89.0309 86.0494 88.7165 86.0494 88.3838V88.2266C86.0494 87.8984 86.013 87.5885 85.94 87.2969C85.8717 87.0007 85.7623 86.7386 85.6119 86.5107C85.4661 86.2829 85.2792 86.1051 85.0514 85.9775C84.8281 85.8454 84.5615 85.7793 84.2516 85.7793C83.9417 85.7793 83.6728 85.8454 83.4449 85.9775C83.2216 86.1051 83.037 86.2829 82.8912 86.5107C82.7454 86.7386 82.6383 87.0007 82.5699 87.2969C82.5016 87.5885 82.4674 87.8984 82.4674 88.2266ZM89.2598 84.6035H90.9141V92.6426C90.9141 93.1484 90.8275 93.5745 90.6543 93.9209C90.4811 94.2718 90.2259 94.5361 89.8887 94.7139C89.5514 94.8962 89.139 94.9873 88.6514 94.9873C88.5055 94.9873 88.3551 94.9759 88.2002 94.9531C88.0407 94.9349 87.8903 94.9076 87.749 94.8711L87.7559 93.5859C87.8516 93.6042 87.9541 93.6178 88.0635 93.627C88.1683 93.6406 88.2686 93.6475 88.3643 93.6475C88.5602 93.6475 88.7243 93.6133 88.8564 93.5449C88.9886 93.4766 89.0889 93.3695 89.1572 93.2236C89.2256 93.0778 89.2598 92.8841 89.2598 92.6426V84.6035ZM89.1162 82.6621C89.1162 82.4115 89.2005 82.2041 89.3691 82.04C89.5378 81.8714 89.7679 81.7871 90.0596 81.7871C90.3558 81.7871 90.5859 81.8714 90.75 82.04C90.9186 82.2041 91.0029 82.4115 91.0029 82.6621C91.0029 82.9082 90.9186 83.1133 90.75 83.2773C90.5859 83.4414 90.3558 83.5234 90.0596 83.5234C89.7679 83.5234 89.5378 83.4414 89.3691 83.2773C89.2005 83.1133 89.1162 82.9082 89.1162 82.6621ZM96.0521 92.1367C95.5053 92.1367 95.0108 92.0479 94.5688 91.8701C94.1313 91.6878 93.7576 91.4349 93.4477 91.1113C93.1423 90.7878 92.9076 90.4072 92.7436 89.9697C92.5795 89.5322 92.4975 89.0605 92.4975 88.5547V88.2812C92.4975 87.7025 92.5818 87.1784 92.7504 86.709C92.919 86.2396 93.1537 85.8385 93.4545 85.5059C93.7553 85.1686 94.1107 84.9111 94.5209 84.7334C94.9311 84.5557 95.3754 84.4668 95.8539 84.4668C96.3826 84.4668 96.8451 84.5557 97.2416 84.7334C97.6381 84.9111 97.9662 85.1618 98.226 85.4854C98.4903 85.8044 98.6863 86.1849 98.8139 86.627C98.946 87.069 99.0121 87.5566 99.0121 88.0898V88.7939H93.2973V87.6113H97.3852V87.4814C97.376 87.1852 97.3168 86.9072 97.2074 86.6475C97.1026 86.3877 96.9408 86.1781 96.7221 86.0186C96.5033 85.859 96.2117 85.7793 95.8471 85.7793C95.5736 85.7793 95.3298 85.8385 95.1156 85.957C94.906 86.071 94.7305 86.2373 94.5893 86.4561C94.448 86.6748 94.3386 86.9391 94.2611 87.249C94.1882 87.5544 94.1518 87.8984 94.1518 88.2812V88.5547C94.1518 88.8783 94.1951 89.179 94.2816 89.457C94.3728 89.7305 94.5049 89.9697 94.6781 90.1748C94.8513 90.3799 95.0609 90.5417 95.307 90.6602C95.5531 90.7741 95.8334 90.8311 96.1479 90.8311C96.5443 90.8311 96.8975 90.7513 97.2074 90.5918C97.5173 90.4323 97.7862 90.2067 98.0141 89.915L98.8822 90.7559C98.7227 90.9883 98.5154 91.2116 98.2602 91.4258C98.0049 91.6354 97.6928 91.8063 97.3236 91.9385C96.959 92.0706 96.5352 92.1367 96.0521 92.1367ZM103.419 90.8242C103.688 90.8242 103.929 90.7718 104.143 90.667C104.362 90.5576 104.538 90.4072 104.67 90.2158C104.806 90.0244 104.882 89.8034 104.895 89.5527H106.447C106.438 90.0312 106.297 90.4665 106.023 90.8584C105.75 91.2503 105.388 91.5625 104.936 91.7949C104.485 92.0228 103.986 92.1367 103.439 92.1367C102.874 92.1367 102.382 92.041 101.963 91.8496C101.543 91.6536 101.195 91.3848 100.917 91.043C100.639 90.7012 100.429 90.307 100.288 89.8604C100.151 89.4137 100.083 88.9352 100.083 88.4248V88.1855C100.083 87.6751 100.151 87.1966 100.288 86.75C100.429 86.2988 100.639 85.9023 100.917 85.5605C101.195 85.2188 101.543 84.9521 101.963 84.7607C102.382 84.5648 102.872 84.4668 103.432 84.4668C104.025 84.4668 104.544 84.5853 104.991 84.8223C105.438 85.0547 105.789 85.3805 106.044 85.7998C106.304 86.2145 106.438 86.6976 106.447 87.249H104.895C104.882 86.9756 104.813 86.7295 104.69 86.5107C104.572 86.2874 104.403 86.1097 104.184 85.9775C103.97 85.8454 103.713 85.7793 103.412 85.7793C103.079 85.7793 102.804 85.8477 102.585 85.9844C102.366 86.1165 102.195 86.2988 102.072 86.5312C101.949 86.7591 101.86 87.0166 101.805 87.3037C101.755 87.5863 101.73 87.8802 101.73 88.1855V88.4248C101.73 88.7301 101.755 89.0264 101.805 89.3135C101.856 89.6006 101.942 89.8581 102.065 90.0859C102.193 90.3092 102.366 90.4893 102.585 90.626C102.804 90.7581 103.082 90.8242 103.419 90.8242ZM111.202 84.6035V85.8066H107.032V84.6035H111.202ZM108.236 82.792H109.883V89.9561C109.883 90.1839 109.915 90.3594 109.979 90.4824C110.047 90.6009 110.14 90.6807 110.259 90.7217C110.377 90.7627 110.516 90.7832 110.676 90.7832C110.79 90.7832 110.899 90.7764 111.004 90.7627C111.109 90.749 111.193 90.7354 111.257 90.7217L111.264 91.9795C111.127 92.0205 110.968 92.057 110.785 92.0889C110.608 92.1208 110.403 92.1367 110.17 92.1367C109.792 92.1367 109.457 92.0706 109.165 91.9385C108.874 91.8018 108.646 91.5807 108.482 91.2754C108.318 90.9701 108.236 90.5645 108.236 90.0586V82.792Z" fill="#FF7575"/>
</g>
<defs>
<filter id="filter0_dd_180_157" x="0" y="0" width="140" height="162" filterUnits="userSpaceOnUse" color-interpolation-filters="sRGB">
<feFlood flood-opacity="0" result="BackgroundImageFix"/>
<feColorMatrix in="SourceAlpha" type="matrix" values="0 0 0 0 0 0 0 0 0 0 0 0 0 0 0 0 0 0 127 0" result="hardAlpha"/>
<feOffset dy="1"/>
<feGaussianBlur stdDeviation="1.5"/>
<feColorMatrix type="matrix" values="0 0 0 0 0 0 0 0 0 0 0 0 0 0 0 0 0 0 0.3 0"/>
<feBlend mode="normal" in2="BackgroundImageFix" result="effect1_dropShadow_180_157"/>
<feColorMatrix in="SourceAlpha" type="matrix" values="0 0 0 0 0 0 0 0 0 0 0 0 0 0 0 0 0 0 127 0" result="hardAlpha"/>
<feMorphology radius="3" operator="dilate" in="SourceAlpha" result="effect2_dropShadow_180_157"/>
<feOffset dy="4"/>
<feGaussianBlur stdDeviation="4"/>
<feColorMatrix type="matrix" values="0 0 0 0 0 0 0 0 0 0 0 0 0 0 0 0 0 0 0.15 0"/>
<feBlend mode="normal" in2="effect1_dropShadow_180_157" result="effect2_dropShadow_180_157"/>
<feBlend mode="normal" in="SourceGraphic" in2="effect2_dropShadow_180_157" result="shape"/>
</filter>
</defs>
</svg>
