<svg width="33" height="25" viewBox="0 0 33 25" fill="none" xmlns="http://www.w3.org/2000/svg">
<path d="M23.0119 14.195C25.0238 15.59 26.4336 17.48 26.4336 20V24.5H32.3077V20C32.3077 16.73 27.065 14.795 23.0119 14.195Z" fill="white"/>
<path d="M20.5594 12.5C23.8049 12.5 26.4336 9.815 26.4336 6.5C26.4336 3.185 23.8049 0.5 20.5594 0.5C19.8692 0.5 19.2231 0.65 18.6063 0.86C19.8252 2.405 20.5594 4.37 20.5594 6.5C20.5594 8.63 19.8252 10.595 18.6063 12.14C19.2231 12.35 19.8692 12.5 20.5594 12.5Z" fill="white"/>
<path d="M11.7483 12.5C14.9937 12.5 17.6224 9.815 17.6224 6.5C17.6224 3.185 14.9937 0.5 11.7483 0.5C8.5028 0.5 5.87413 3.185 5.87413 6.5C5.87413 9.815 8.5028 12.5 11.7483 12.5ZM11.7483 3.5C13.3636 3.5 14.6853 4.85 14.6853 6.5C14.6853 8.15 13.3636 9.5 11.7483 9.5C10.1329 9.5 8.81119 8.15 8.81119 6.5C8.81119 4.85 10.1329 3.5 11.7483 3.5Z" fill="white"/>
<path d="M11.7483 14C7.82727 14 0 16.01 0 20V24.5H23.4965V20C23.4965 16.01 15.6692 14 11.7483 14ZM20.5594 21.5H2.93706V20.015C3.23077 18.935 7.78322 17 11.7483 17C15.7133 17 20.2657 18.935 20.5594 20V21.5Z" fill="white"/>
</svg>
